<?xml version="1.0" encoding="UTF-8" standalone="no"?>
<svg width="60px" height="51px" viewBox="0 0 60 51" version="1.1" xmlns="http://www.w3.org/2000/svg" xmlns:xlink="http://www.w3.org/1999/xlink">
    <!-- Generator: Sketch 39.1 (31720) - http://www.bohemiancoding.com/sketch -->
    <title>plus copy</title>
    <desc>Created with Sketch.</desc>
    <defs></defs>
    <g id="Page-1" stroke="none" stroke-width="1" fill="none" fill-rule="evenodd">
        <g id="plus-copy" fill="#FFFFFF">
            <path d="M60,11.3863636 L60,41.3181818 L55.9772727,45.5454545 L4.09090909,45.5454545 L0,41.5227273 L0,11.3863636 L4.09090909,7.29545455 L17.6590909,7.29545455 L24.4772727,0.477272727 L35.4545455,0.477272727 L42.2727273,7.29545455 L55.9772727,7.29545455 L60,11.3863636 Z M30,37.9772727 C31.6818266,37.9772727 33.2727198,37.6590941 34.7727273,37.0227273 C36.2727348,36.3863605 37.5909034,35.5113692 38.7272727,34.3977273 C39.863642,33.2840853 40.7499968,31.9886438 41.3863636,30.5113636 C42.0227305,29.0340835 42.3409091,27.4545539 42.3409091,25.7727273 C42.3409091,24.0909007 42.0227305,22.5000075 41.3863636,21 C40.7499968,19.4999925 39.863642,18.1931874 38.7272727,17.0795455 C37.5909034,15.9659035 36.2727348,15.0909123 34.7727273,14.4545455 C33.2727198,13.8181786 31.6818266,13.5 30,13.5 C28.3181734,13.5 26.7272802,13.8181786 25.2272727,14.4545455 C23.7272652,15.0909123 22.4204601,15.9659035 21.3068182,17.0795455 C20.1931762,18.1931874 19.318185,19.4999925 18.6818182,21 C18.0454514,22.5000075 17.7272727,24.0909007 17.7272727,25.7727273 C17.7272727,27.4545539 18.0454514,29.0340835 18.6818182,30.5113636 C19.318185,31.9886438 20.1931762,33.2840853 21.3068182,34.3977273 C22.4204601,35.5113692 23.7272652,36.3863605 25.2272727,37.0227273 C26.7272802,37.6590941 28.3181734,37.9772727 30,37.9772727 L30,37.9772727 Z" id="î„"></path>
        </g>
    </g>
</svg>